# xmcd
#
# Track frame offsets:
#	150
#	17839
#	31879
#	49668
#	66085
#	80446
#	98425
#	110436
#	127335
#	141025
#	155816
#	171024
#	189259
#	203682
#
# Disc length: 2884 seconds
#
# Revision: 2
# Processed by: cddbd v1.4PL0 Copyright (c) Steve Scherf et al.
# Submitted via: audiograbber 1.81.01
#
DISCID=b60b420e
DTITLE=Yukon Jack Lohman - Acoustic Grass
DYEAR=2002
DGENRE=Bluegrass
TTITLE0=The Road, My Truck, and Me
TTITLE1=She Took My Heart (On the Road)
TTITLE2=Bayou Country
TTITLE3=Old Kentucky
TTITLE4=There Ain't No Road (to Where We Used to Be)
TTITLE5=Little Superstar
TTITLE6=Saturday Stars
TTITLE7=The Coffee Pot's On (All Night Long)
TTITLE8=She's Back in My Life
TTITLE9=One Night Stand
TTITLE10=Life's a Ride
TTITLE11=Homeless Man
TTITLE12=My Heart's for Hire (in the Unemployment Line)
TTITLE13=Is It Too Late To Change the Show?
EXTD=Copyright 2002 \nJack Lohman\nPO Box 370722, San Diego, CA 92137
EXTT0=
EXTT1=
EXTT2=
EXTT3=
EXTT4=
EXTT5=
EXTT6=
EXTT7=
EXTT8=
EXTT9=
EXTT10=
EXTT11=
EXTT12=
EXTT13=
PLAYORDER=
